<svg xmlns="http://www.w3.org/2000/svg" width="150" height="34" viewBox="0 0 150 34" fill="none"><path fill-rule="evenodd" clip-rule="evenodd" d="M4.37165 4.38733C3.63721 6.39826 2.79786 8.30335 0.349732 8.51503L0 11.0904H2.4831V20.5101C2.4831 22.9796 2.44812 26.3664 7.90394 26.3664C9.54768 26.3664 11.2963 25.8725 12.3455 25.1317L11.2963 22.4151C10.7368 22.7679 9.86244 23.156 8.91816 23.156C7.48426 23.156 6.64491 22.521 6.64491 20.3689V11.0904H10.9466L11.2963 8.12696H6.64491V4.38733H4.37165ZM16.3675 21.9212C16.3675 22.8032 16.0177 23.0149 15.3532 23.0855L14.1991 23.1913V25.8725H23.5719V23.0855L20.5293 22.9443V14.7595C20.5293 12.7133 21.8233 11.1963 23.7118 11.1963C24.0965 11.1963 24.3413 11.2316 24.6561 11.3727C24.9359 11.5138 25.0058 11.8313 25.0058 12.2547V13.8775L28.2583 13.6306V8.37391C27.1042 7.80944 26.055 7.59776 24.9009 7.59776C22.5927 7.59776 20.7391 9.00894 19.9347 10.7729V8.12696H14.0242V10.9846L15.4931 11.0904C16.1576 11.1257 16.3675 11.3727 16.3675 12.1488V21.9212ZM36.3371 8.12696H30.0769V11.0552L31.301 11.1257C31.9655 11.1257 32.1753 11.3727 32.1753 12.1488V21.9565C32.1753 22.8032 31.7906 23.0149 31.1611 23.0855L30.007 23.1913V25.8725H38.3306V23.0502L36.3371 22.9443V8.12696ZM31.1961 3.22311C31.1961 4.70485 32.2453 5.79851 33.854 5.79851C35.4278 5.79851 36.547 4.70485 36.547 3.22311C36.547 1.74137 35.4278 0.577148 33.889 0.577148C32.2453 0.577148 31.1961 1.74137 31.1961 3.22311ZM40.3241 10.9493L41.793 11.0552C42.4225 11.0904 42.6673 11.3727 42.6673 12.1488V21.9212C42.6673 22.8032 42.3176 23.0149 41.6531 23.0855L40.499 23.1913V25.8725H48.8226V23.0502L46.8291 22.9443V14.4067C46.8291 12.5722 48.1231 10.8435 50.4313 10.8435C52.8095 10.8435 53.2991 12.3252 53.2991 14.6537V21.9212C53.2991 22.8032 52.9494 23.0149 52.2849 23.0855L51.1308 23.1913V25.8725H59.4544V23.0502L57.4609 22.9443V13.7364C57.4609 9.57341 55.3975 7.59776 51.9002 7.59776C49.592 7.59776 47.4586 8.65615 46.2346 10.4201V8.12696H40.3241V10.9493ZM68.6524 33.4223C73.8984 33.4223 76.3115 31.0233 76.7312 25.8373C76.8361 24.5672 76.8011 23.2266 76.8011 21.9918V8.9031C74.7377 8.02112 72.0098 7.59776 70.3311 7.59776C65.0501 7.59776 61.2381 10.5965 61.2381 16.9821C61.2381 21.004 62.9867 25.2375 68.0928 25.2375C69.8065 25.2375 71.5551 24.673 72.7442 23.2619V25.2022C72.7442 28.1657 71.9049 30.3883 68.6873 30.3883C67.6382 30.3883 66.8687 30.2825 66.2042 30.0355C65.5747 29.7886 65.3999 29.4358 65.3999 28.7654V27.072L62.0774 27.3543V32.2581C63.5463 32.999 66.4491 33.4223 68.6524 33.4223ZM72.7442 18.6755C72.7442 20.8276 71.1355 22.1329 69.177 22.1329C65.9245 22.1329 65.5398 18.9578 65.5398 16.5588C65.5398 12.9955 67.0436 10.6671 69.9464 10.6671C70.9256 10.6671 71.9398 10.8082 72.7442 11.0904V18.6755ZM93.973 8.83255C91.4549 7.88 88.9018 7.59776 87.7477 7.59776C81.4526 7.59776 78.5148 11.5491 78.5148 17.7583C78.5148 22.8032 80.5782 26.3312 85.5094 26.3312C87.433 26.3312 89.2166 25.3786 90.3008 23.791L90.4057 23.8263V25.8725H95.9664V23.0502L94.8473 22.9796C94.1828 22.9443 93.973 22.7327 93.973 21.9565V8.83255ZM89.9161 20.2631C89.9161 21.7801 88.5871 23.3324 86.4188 23.3324C83.481 23.3324 82.7815 20.5453 82.7815 17.6171C82.7815 13.807 83.9007 10.6671 87.2231 10.6671C88.3073 10.6671 89.3915 10.8788 89.9161 11.1257V20.2631ZM100.058 29.2241C100.058 30.1061 99.7086 30.3177 99.0441 30.3883L97.89 30.4941V33.1754H106.913V30.3883L104.08 30.2472V25.3786C104.99 25.9431 106.458 26.4017 107.822 26.4017C112.439 26.4017 115.481 23.0502 115.481 16.5588C115.481 10.2437 113.033 7.59776 109.151 7.59776C106.179 7.59776 104.255 9.22062 103.626 10.4201V8.12696H97.7151V10.9846L99.184 11.0904C99.8484 11.0904 100.058 11.3727 100.058 12.1488V29.2241ZM111.145 16.9115C111.145 19.9809 110.131 23.0502 107.158 23.0502C106.249 23.0502 104.99 22.7679 104.08 22.1682V14.0539C104.08 12.4311 105.619 11.0199 107.612 11.0199C109.466 11.0199 111.145 12.2194 111.145 16.9115ZM119.573 29.2241C119.573 30.1061 119.224 30.3177 118.559 30.3883L117.405 30.4941V33.1754H126.428V30.3883L123.595 30.2472V25.3786C124.505 25.9431 125.973 26.4017 127.337 26.4017C131.954 26.4017 134.997 23.0502 134.997 16.5588C134.997 10.2437 132.548 7.59776 128.666 7.59776C125.694 7.59776 123.77 9.22062 123.141 10.4201V8.12696H117.23V10.9846L118.699 11.0904C119.363 11.0904 119.573 11.3727 119.573 12.1488V29.2241ZM130.66 16.9115C130.66 19.9809 129.646 23.0502 126.673 23.0502C125.764 23.0502 124.505 22.7679 123.595 22.1682V14.0539C123.595 12.4311 125.134 11.0199 127.128 11.0199C128.981 11.0199 130.66 12.2194 130.66 16.9115ZM145.593 10.8082C146.223 11.0552 146.398 11.3374 146.398 12.0077V13.4894L149.545 13.2425V9.00894C148.181 8.33863 146.118 7.59776 143.74 7.59776C140.068 7.59776 136.99 9.53814 136.99 13.2072C136.99 17.1232 139.823 18.0052 142.411 18.6755C144.299 19.1694 145.838 19.4869 145.838 21.1804C145.838 22.6621 144.824 23.3324 143.075 23.3324C142.236 23.3324 141.432 23.2266 140.767 22.9796C140.138 22.7327 139.963 22.4504 139.963 21.7801V20.0867L136.815 20.3337V25.2375C138.284 25.9784 141.047 26.3312 143.25 26.3312C146.992 26.3312 150 24.3555 150 20.6865C150 16.841 146.992 15.959 144.264 15.1829C142.621 14.7242 140.942 14.2303 140.942 12.6074C140.942 11.1963 142.061 10.4907 143.565 10.4907C144.404 10.4907 144.929 10.5612 145.593 10.8082Z" fill="#FEFEFE"></path></svg>